<?xml version="1.0" encoding="utf-8"?>
<svg viewBox="0 0 500 500" xmlns="http://www.w3.org/2000/svg">
  <path class="cls-1" d="M 434.006 281.585 C 433.534 281.736 433.07 281.942 432.591 282.019 C 432.096 282.095 431.588 282.046 431.084 282.046 C 419.144 282.025 407.205 282.001 395.266 281.976 C 394.202 281.976 393.143 282.027 392.083 281.684 C 391.492 281.492 390.836 281.598 390.208 281.597 C 373.869 281.563 357.533 281.532 341.2 281.503 C 340.198 281.503 339.203 281.54 338.206 281.215 C 337.614 281.022 336.958 281.121 336.329 281.12 C 319.678 281.086 303.028 281.051 286.38 281.015 C 285.447 281.015 284.515 280.802 283.58 280.718 C 282.954 280.664 282.326 280.644 281.695 280.643 C 265.043 280.61 248.393 280.574 231.744 280.54 C 230.811 280.54 229.879 280.28 228.944 280.263 C 226.876 280.224 224.804 280.237 222.734 280.281 C 221.925 280.299 221.117 280.538 220.309 280.543 C 212.14 280.59 203.971 280.62 195.803 280.634 C 194.738 280.634 193.678 280.597 192.621 280.937 C 192.027 281.128 191.372 281.023 190.744 281.027 C 182.324 281.057 173.904 281.086 165.483 281.114 C 164.481 281.114 163.485 281.067 162.491 281.407 C 161.96 281.589 161.367 281.495 160.802 281.497 C 151.627 281.532 142.453 281.566 133.278 281.605 C 132.345 281.605 131.413 281.818 130.479 281.901 C 129.853 281.958 129.225 281.976 128.594 281.978 C 120.362 282.01 112.131 282.042 103.899 282.073 C 102.965 282.073 102.033 282.286 101.099 282.371 C 100.474 282.425 99.846 282.449 99.215 282.451 C 90.668 282.485 82.122 282.517 73.576 282.551 C 72.704 282.551 71.835 282.754 70.963 282.833 C 70.338 282.89 69.709 282.921 69.083 282.923 C 59.971 282.958 50.86 282.993 41.748 283.029 C 40.939 283.029 40.131 283.215 39.323 283.299 C 38.822 283.35 38.322 283.398 37.821 283.4 C 31.6 283.429 25.379 283.45 19.158 283.463 C 18.357 283.463 17.51 283.634 16.779 282.615 C 18.805 282.087 20.748 281.525 22.706 281.086 C 26.034 280.34 29.357 279.562 32.593 278.329 C 35.773 277.117 38.954 275.894 42.08 274.486 C 47.157 272.199 52.245 269.945 57.046 266.774 C 59.431 265.199 61.955 263.961 64.405 262.538 C 68.458 260.182 72.222 257.163 76.073 254.338 C 80.032 251.433 83.893 248.331 87.655 245.035 C 90.847 242.238 94.092 239.533 97.239 236.66 C 100.78 233.471 104.19 230.112 107.654 226.859 C 110.67 224.028 113.712 221.24 116.742 218.433 C 119.872 215.531 122.975 212.583 126.14 209.741 C 128.694 207.449 131.304 205.255 133.917 203.07 C 138.514 199.22 143.125 195.395 147.749 191.594 C 151.747 188.317 155.821 185.2 160.086 182.492 C 161.542 181.567 162.92 180.431 164.402 179.586 C 168.455 177.275 172.503 174.905 176.643 172.853 C 182.715 169.849 188.932 167.34 195.259 165.344 C 198.047 164.46 200.891 163.868 203.714 163.162 C 205.493 162.719 207.277 162.315 209.059 161.891 C 209.241 161.835 209.426 161.79 209.612 161.76 C 211.737 161.575 213.859 161.38 215.984 161.227 C 217.047 161.151 218.111 161.258 219.163 160.882 C 219.635 160.715 220.161 160.794 220.663 160.792 C 223.49 160.783 226.318 160.766 229.146 160.792 C 230.522 160.802 231.907 160.674 233.264 161.149 C 233.616 161.273 234.019 161.21 234.39 161.208 C 238.355 161.184 242.243 161.904 246.109 162.977 C 248.916 163.757 251.764 164.294 254.581 165.041 C 256.355 165.516 258.118 166.086 259.852 166.758 C 263.566 168.199 267.284 169.64 270.953 171.257 C 273.731 172.482 276.456 173.914 279.166 175.372 C 281.933 176.863 284.715 178.344 287.379 180.102 C 291.878 183.075 296.41 185.978 300.65 189.539 C 303.835 192.211 307.101 194.727 310.305 197.361 C 314.667 200.946 319.026 204.53 323.339 208.195 C 325.257 209.827 327.064 211.671 328.928 213.409 C 329.988 214.395 331.053 215.369 332.125 216.33 C 334.221 218.207 336.339 220.044 338.419 221.947 C 341.563 224.825 344.703 227.709 347.805 230.66 C 350.907 233.608 354.02 236.541 357.271 239.237 C 360.625 242.016 363.88 244.983 367.247 247.735 C 370.088 250.055 373.007 252.224 375.925 254.391 C 379.601 257.126 383.325 259.76 387.209 262.009 C 391.483 264.485 395.756 266.964 400.058 269.366 C 401.545 270.197 403.109 270.809 404.646 271.495 C 407.011 272.549 409.397 273.523 411.746 274.632 C 415.4 276.353 419.206 277.366 422.975 278.532 C 425.764 279.395 428.623 279.902 431.451 280.571 C 432.305 280.774 433.156 280.989 434.009 281.196 Z" style="fill: rgb(237, 136, 82);"/>
  <path class="cls-8" d="M 219.628 251.39 C 211.434 251.426 204.755 246.835 204.72 241.143 C 204.673 235.457 211.298 230.871 219.494 230.781 C 226.276 230.705 234.227 234.378 234.403 241.049 C 234.553 246.72 227.811 251.373 219.628 251.39 Z" style="fill: rgb(6, 5, 5);"/>
  <path class="cls-8" d="M 282.886 248.233 C 277.659 248.447 271.981 245.26 272.021 240.732 C 272.062 236.273 277.526 233.124 283.254 233.119 C 289.27 233.112 294.065 236.499 294.103 240.685 C 294.146 245.188 288.427 248.416 282.886 248.233 Z" style="fill: rgb(6, 5, 5);"/>
  <path class="cls-9" d="M 236.861 257.846 C 237.849 257.626 238.54 258.074 239.263 258.391 C 240.934 259.112 242.547 259.902 244.24 260.597 C 247.782 262.052 251.585 262.902 255.75 262.902 C 260.207 262.902 263.495 261.568 265.678 258.871 C 266.578 257.742 267.244 256.53 267.653 255.271 C 267.93 254.45 268.619 254.091 269.413 254.198 C 270.35 254.327 270.895 254.979 270.454 255.816 C 268.995 258.595 268.127 261.481 267.09 264.338 C 266.513 265.892 265.446 267.337 263.963 268.568 C 260.812 271.231 256.378 271.952 251.878 270.534 C 249.863 269.898 248.121 268.982 246.509 267.944 C 244.002 266.331 241.951 264.458 240.161 262.447 C 239.149 261.283 238.326 260.036 236.891 259.054 C 236.405 258.719 236.268 258.252 236.861 257.846 Z" style="fill: rgb(9, 8, 8);"/>
  <path class="cls-5" d="M 284.798 222.07 C 283.429 222.313 282.05 222.528 280.698 222.813 C 279.973 222.965 279.308 223.253 278.593 223.441 C 277.95 223.61 277.288 223.657 276.888 223.141 C 276.508 222.653 276.838 222.232 277.344 221.93 C 280.034 220.324 283.148 219.507 286.71 219.717 C 290.06 219.914 292.711 221.058 294.785 222.861 C 297.172 224.936 298.436 227.339 298.954 229.95 C 299.01 230.249 298.999 230.553 298.924 230.852 C 298.759 231.521 297.817 232.095 296.843 232.096 C 295.915 232.096 295.069 231.854 294.721 231.221 C 294.436 230.649 294.237 230.059 294.128 229.459 C 293.753 227.79 293.105 226.19 291.73 224.771 C 290.088 223.082 287.864 222.117 284.798 222.07 Z" style="fill: rgb(16, 12, 12);"/>
  <path class="cls-20" d="M 214.53 219.23 C 216.957 219.372 219.334 219.87 221.034 221.343 C 221.426 221.686 221.655 222.135 221.841 222.56 C 221.915 222.728 221.752 223.03 221.55 223.151 C 221.29 223.278 220.962 223.32 220.654 223.265 C 220.252 223.157 219.88 222.999 219.558 222.8 C 216.83 221.244 213.903 221.39 210.929 222.348 C 209.016 222.957 207.466 224.008 206.543 225.321 C 206.25 225.727 206.049 226.168 205.736 226.565 C 205.333 227.034 204.533 227.263 203.771 227.126 C 202.877 226.944 202.403 226.401 202.548 225.703 C 202.589 225.475 202.667 225.252 202.776 225.036 C 204.882 221.174 209.898 219.386 214.53 219.23 Z" style="fill: rgb(21, 19, 19);"/>
  <path class="cls-12" d="M 61.464 118.032 C 59.635 116.025 57.701 114.043 56.008 112 C 54.642 110.351 53.5 108.639 52.393 106.928 C 51.995 106.272 51.787 105.584 51.778 104.892 C 51.75 104.131 52.588 103.62 53.836 103.313 C 54.96 103.038 56.074 103.13 56.874 103.55 C 57.873 104.072 58.679 104.724 59.463 105.362 C 62.459 107.786 65.394 110.235 68.406 112.652 C 68.869 113.022 69.622 113.275 70.953 113.932 C 70.522 112.847 70.353 112.275 70.069 111.715 C 68.824 109.297 67.45 106.9 66.33 104.465 C 65.865 103.473 65.796 102.404 65.796 101.37 C 65.796 100.444 66.882 99.849 68.277 99.762 C 69.557 99.682 70.591 99.999 71.245 100.747 C 71.657 101.212 71.958 101.709 72.295 102.194 C 75.392 106.655 79.366 110.875 83.482 115.056 C 83.764 115.343 84.176 115.589 84.692 115.968 C 85.565 115.447 85.204 114.956 85.155 114.52 C 84.968 112.7 84.589 110.882 84.572 109.061 C 84.56 107.857 84.954 106.643 85.343 105.451 C 85.565 104.858 85.98 104.293 86.566 103.785 C 87.365 103.064 88.65 102.759 90.16 102.923 C 91.512 103.071 92.318 103.591 92.653 104.306 C 92.904 104.902 93.087 105.505 93.203 106.113 C 94.707 112.424 97.728 118.526 101.124 124.578 C 101.819 125.82 102.637 127.045 103.174 128.309 C 103.598 129.308 103.702 130.351 103.91 131.379 C 104.083 132.232 104.274 133.088 104.331 133.946 C 104.42 135.227 105.489 136.214 106.795 137.226 C 119.791 147.269 132.81 157.303 145.633 167.415 C 154.243 174.203 162.564 181.11 170.979 187.973 C 172.21 188.97 173.33 190.01 174.332 191.085 C 175.427 192.259 175.586 193.64 174.768 194.883 C 173.032 197.695 167.171 198.914 162.606 197.415 C 160.813 196.84 159.497 195.997 158.409 195.034 C 156.672 193.494 154.955 191.948 153.255 190.393 C 136.872 175.36 120.561 160.303 105.044 144.978 C 102.91 142.87 100.802 140.753 98.647 138.604 C 97.507 138.604 96.451 138.554 95.404 138.611 C 90.604 138.873 85.834 138.682 81.101 138.271 C 76.975 137.911 72.985 137.161 69.302 136.054 C 64.257 134.538 59.394 132.84 55.225 130.621 C 52.894 129.376 50.962 127.891 48.909 126.487 C 48.429 126.161 48.149 125.734 47.846 125.336 C 47.343 124.676 47.152 123.999 47.831 123.333 C 48.684 122.51 50.082 122.538 51.499 122.603 L 52.888 123.075 C 53.01 123.652 53.76 123.822 54.617 123.922 L 55.254 124.191 L 55.094 123.648 L 53.294 122.229 C 53.149 122.105 52.942 122.007 52.699 121.947 C 51.078 120.294 49.357 118.671 47.896 116.975 C 47.053 115.966 46.431 114.903 46.044 113.808 C 45.848 113.279 46.199 112.635 46.586 112.103 C 46.972 111.571 48.61 111.405 49.365 111.8 C 50.125 112.215 50.811 112.671 51.412 113.162 C 54.01 115.187 56.795 117.116 60.257 118.702 C 60.771 119.306 61.555 119.688 63.18 119.859 C 62.89 119.353 62.8 119.042 62.542 118.786 C 62.261 118.508 61.827 118.281 61.464 118.032 Z M 71.264 114.103 C 71.154 114.038 71.068 113.982 70.977 113.927 C 70.868 114.031 70.781 114.142 70.718 114.257 C 70.701 114.3 70.879 114.366 70.97 114.42 Z" style="fill: rgb(177, 62, 0);" transform="matrix(0.891007, 0.45399, -0.45399, 0.891007, 79.660174, -33.998101)"/>
  <path class="cls-12" d="M 482.056 152.94 C 482.963 152.92 483.912 152.826 484.776 152.895 C 488.377 153.186 489.949 154.376 488.379 155.666 C 487.633 156.243 486.723 156.786 485.665 157.282 C 484.661 157.798 483.512 158.268 482.24 158.683 C 470.824 162.217 459.139 165.566 444.712 167.01 C 443.117 167.17 441.527 167.354 439.98 167.576 C 436.647 168.053 433.319 168.376 429.686 167.601 C 429.262 167.848 428.943 168.017 428.671 168.197 C 419.475 174.267 410.429 180.373 401.06 186.4 C 383.652 197.596 366.06 208.748 348.532 219.913 C 346.127 221.446 343.662 222.968 341.071 224.458 C 339.96 225.118 338.612 225.711 337.07 226.22 C 330.384 228.3 320.484 226.752 319.248 223.433 C 319.014 222.805 319.132 222.165 319.593 221.556 C 320.073 220.937 320.763 220.346 321.648 219.8 C 323.405 218.703 325.269 217.629 327.211 216.58 C 353.029 202.657 378.868 188.735 404.728 174.816 C 410.364 171.792 416.392 168.882 422.233 165.919 C 422.783 165.637 423.332 165.346 423.922 165.034 C 423.526 164.858 423.253 164.655 422.821 164.562 C 419.114 163.746 418.066 162.428 418.44 160.883 C 418.787 159.449 419.265 158.017 419.815 156.593 C 421.661 151.931 421.466 147.247 420.97 142.557 C 420.901 141.908 420.837 141.258 420.858 140.609 C 420.88 139.988 421.532 139.47 423.058 139.234 C 424.771 138.969 426.493 139.119 427.504 139.696 C 428.883 140.452 430.017 141.274 430.88 142.141 C 432.782 144.181 433.593 146.327 434.27 148.478 C 434.444 149.031 434.252 149.639 435.645 150.135 C 436.1 149.867 436.594 149.652 436.869 149.401 C 441.286 145.36 445.752 141.326 447.655 136.946 C 447.779 136.661 447.981 136.384 448.255 136.116 C 449.006 135.376 450.627 134.925 452.437 134.931 C 454.377 134.931 456.483 135.499 456.81 136.318 C 457.165 137.17 457.2 138.037 456.91 138.893 C 456.327 140.535 455.516 142.164 454.481 143.771 C 453.191 145.719 451.505 147.631 450.045 149.564 C 449.699 150.021 449.561 150.501 449.107 151.413 C 450.647 150.832 451.516 150.603 452.056 150.287 C 455.941 148.005 459.298 145.609 461.816 143.037 C 463.001 141.826 464.195 140.616 465.522 139.429 C 466.187 138.836 467.017 138.274 467.997 137.754 C 469.466 136.975 471.363 136.746 473.275 137.044 C 475.233 137.348 475.97 137.98 475.959 138.76 C 475.958 139.192 475.851 139.624 475.64 140.048 C 474.093 143.093 472.307 146.109 468.833 148.922 C 468.377 149.291 467.69 149.663 468.245 150.128 C 469.279 150.357 469.919 150.089 470.492 149.825 C 473.229 148.564 475.949 147.297 478.651 146.025 C 479.826 145.473 480.877 144.875 482.127 144.351 C 482.994 143.981 484.003 143.667 485.12 143.422 C 487.636 142.886 490.537 143.61 490.458 144.749 C 490.437 145.18 490.194 145.606 489.745 145.999 C 487.943 147.494 486.066 148.973 484.113 150.436 C 483.178 151.134 481.976 151.777 480.895 152.445 C 480.678 152.623 480.154 152.869 480.294 152.964 C 480.827 153.325 481.476 153.078 482.056 152.94 Z M 449.055 151.371 C 448.921 151.461 448.814 151.556 448.736 151.655 C 448.717 151.69 448.942 151.747 449.055 151.794 C 449.189 151.704 449.296 151.609 449.374 151.51 C 449.393 151.474 449.17 151.418 449.058 151.371 Z M 467.703 150.506 C 467.588 150.553 467.357 150.609 467.376 150.644 C 467.453 150.743 467.559 150.838 467.69 150.928 C 467.808 150.882 468.039 150.827 468.02 150.791 C 467.945 150.69 467.839 150.592 467.706 150.5 Z" style="fill: rgb(177, 62, 0);"/>
  <path class="cls-11" d="M 283.79 153.751 C 278.638 156.12 273.496 158.515 268.332 160.855 C 252.246 168.137 236.316 175.739 220.482 183.543 C 206.158 190.604 191.804 197.612 177.484 204.683 C 174.471 206.172 171.55 207.841 168.577 209.412 C 168.145 209.64 167.726 210.066 167.155 209.713 C 167.215 208.637 168.129 208.146 168.767 207.506 C 174.809 201.395 181.109 195.562 187.625 189.941 C 195.168 183.435 202.889 177.152 210.79 171.091 C 226.802 158.87 243.239 147.247 260.474 136.765 C 271.507 130.054 282.662 123.553 294.584 118.468 C 299.13 116.531 303.716 114.708 308.655 113.978 C 309.684 113.822 310.755 113.726 311.782 113.831 C 313.363 113.988 314.053 114.812 313.914 116.354 C 313.823 117.371 313.61 118.441 313.166 119.35 C 312.352 121.043 311.409 122.674 310.344 124.224 C 307.603 128.182 304.521 131.897 301.13 135.325 C 296.029 140.441 290.746 145.382 285.544 150.401 C 285.017 150.909 284.386 151.371 284.041 151.985 C 283.762 152.47 283.86 153.155 283.79 153.751 Z" style="fill: rgb(41, 81, 12);" transform="matrix(0.961262, 0.275637, -0.275637, 0.961262, 53.921142, -60.034165)"/>
  <path class="cls-13" d="M 194.546 124.187 C 201.492 120.354 208.824 117.607 216.698 116.313 C 232.497 113.719 247.235 116.508 260.906 124.789 C 260.047 125.387 259.211 126.018 258.329 126.576 C 255.229 128.536 252.092 130.436 249.002 132.42 C 237.545 139.793 226.378 147.575 215.499 155.766 C 210.23 159.722 205.076 163.833 199.905 167.916 C 197.278 169.991 194.75 172.185 192.14 174.282 C 187.082 178.344 182.108 182.51 177.453 187.032 C 177.09 187.41 176.706 187.768 176.303 188.104 C 171.909 191.54 168.272 195.753 164.29 199.608 C 163.395 200.472 162.603 201.44 161.76 202.359 C 161.141 199.621 160.277 196.914 159.944 194.143 C 157.29 172.14 163.684 152.996 178.71 136.638 C 179.035 136.285 179.546 136.102 179.974 135.84 C 179.765 136.524 179.658 137.25 179.331 137.876 C 178.567 139.363 177.592 140.747 176.901 142.264 C 174.045 148.5 172.424 155.032 172.398 161.909 C 172.388 164.624 172.427 167.339 172.462 170.057 C 172.471 170.786 172.442 171.536 172.6 172.239 C 173.404 175.8 174.361 179.321 175.68 182.738 C 175.913 183.312 176.268 183.829 176.722 184.255 C 176.955 184.475 177.513 184.549 177.84 184.44 C 178.39 184.259 178.601 183.731 178.433 183.166 C 178.283 182.671 178.016 182.208 177.834 181.719 C 175.964 176.705 174.539 171.606 174.865 166.175 C 174.941 164.92 174.901 163.667 174.865 162.414 C 174.707 156.591 175.963 151.037 178.08 145.648 C 179.734 141.441 182.11 137.632 184.827 134.029 C 185.135 133.607 185.536 133.263 186.002 133.021 C 186.318 132.865 186.824 132.939 187.167 133.085 C 187.365 133.17 187.509 133.617 187.49 133.888 C 187.464 134.293 187.23 134.671 187.157 135.087 C 186.683 137.75 186.153 140.399 185.787 143.078 C 185.399 145.907 186.044 148.718 186.535 151.455 C 187.497 156.851 189.752 161.796 192.913 166.31 C 193.461 167.073 194.132 167.742 194.897 168.29 C 195.483 168.714 196.11 168.554 196.253 167.574 C 195.991 167.202 195.694 166.774 195.392 166.351 C 193.134 163.191 191.21 159.874 189.84 156.214 C 188.469 152.554 188.389 148.668 187.698 144.892 C 187.589 144.299 187.756 143.651 187.831 143.034 C 187.929 142.207 188.147 141.389 188.161 140.564 C 188.181 138.44 188.866 136.472 189.426 134.463 C 189.67 133.573 190.232 133.095 191.007 132.645 C 195.161 130.213 195.786 128.678 194.546 124.187 Z M 245.938 130.044 C 245.742 129.619 245.632 129.061 245.297 128.722 C 244.489 127.9 243.623 127.137 242.706 126.435 C 238.456 123.183 234.138 120.011 229.941 116.697 C 228.604 115.637 227.354 115.511 225.858 116.044 C 222.483 117.243 219.195 118.6 216.082 120.392 C 212.061 122.708 208.211 125.279 204.715 128.289 C 201.461 131.089 198.457 134.181 195.42 137.22 C 194.063 138.581 194.141 139.143 195.365 140.73 C 195.428 140.812 195.502 140.887 195.566 140.969 C 197.712 143.678 199.859 146.387 202.005 149.094 C 203.637 151.14 205.259 153.195 206.938 155.205 C 207.793 156.231 208.589 156.35 209.725 155.729 C 210.362 155.361 210.977 154.96 211.571 154.526 C 222.364 147.059 233.154 139.591 243.943 132.12 C 244.462 131.766 244.955 131.375 245.418 130.95 C 245.634 130.754 245.727 130.425 245.932 130.044 Z" style="fill: rgb(70, 138, 22);" transform="matrix(0.961262, 0.275637, -0.275637, 0.961262, 51.930123, -51.766061)"/>
  <path class="cls-18" d="M 197.12 117.295 C 198.36 121.786 197.735 123.321 193.568 125.756 C 192.8 126.206 192.238 126.684 191.987 127.574 C 191.436 129.583 190.751 131.552 190.723 133.675 C 190.712 134.5 190.491 135.318 190.391 136.145 C 190.318 136.762 190.15 137.411 190.26 138.003 C 190.95 141.779 191.025 145.651 192.401 149.325 C 193.778 152.999 195.707 156.296 197.967 159.461 C 198.27 159.883 198.566 160.312 198.827 160.684 C 198.685 161.664 198.059 161.824 197.473 161.398 C 196.707 160.851 196.038 160.182 195.488 159.42 C 192.327 154.91 190.073 149.961 189.11 144.566 C 188.62 141.825 187.976 139.017 188.363 136.187 C 188.73 133.512 189.258 130.859 189.732 128.196 C 189.806 127.789 190.04 127.403 190.066 126.997 C 190.084 126.727 189.94 126.28 189.743 126.195 C 189.399 126.048 188.893 125.981 188.577 126.13 C 188.112 126.372 187.71 126.717 187.402 127.138 C 184.685 130.742 182.309 134.552 180.656 138.757 C 178.538 144.142 177.275 149.696 177.44 155.523 C 177.477 156.776 177.516 158.031 177.44 159.284 C 177.114 164.716 178.547 169.813 180.409 174.829 C 180.591 175.317 180.858 175.78 181.008 176.276 C 181.177 176.84 180.966 177.373 180.415 177.55 C 180.088 177.658 179.53 177.585 179.298 177.364 C 178.844 176.938 178.488 176.421 178.255 175.847 C 176.936 172.435 175.98 168.914 175.176 165.348 C 175.017 164.646 175.046 163.896 175.038 163.167 C 175.003 160.45 174.963 157.735 174.974 155.019 C 175 148.142 176.621 141.61 179.476 135.373 C 180.171 133.859 181.143 132.475 181.906 130.986 C 182.223 130.359 182.341 129.626 182.55 128.949 L 182.535 129.025 C 182.761 128.699 182.987 128.375 183.215 128.048 L 186.598 124.342 C 186.456 123.635 186.294 122.932 186.179 122.237 C 185.727 119.502 186.742 117.089 188.878 115.773 C 190.977 114.483 193.686 114.677 195.915 116.312 C 196.339 116.615 196.719 116.968 197.12 117.295 Z" style="fill: rgb(146, 202, 8);" transform="matrix(0.961262, 0.275637, -0.275637, 0.961262, 47.555942, -45.850486)"/>
  <path class="cls-24" d="M 251.867 133.702 C 251.655 134.083 251.562 134.409 251.347 134.608 C 250.884 135.033 250.391 135.424 249.872 135.778 C 239.084 143.252 228.294 150.721 217.5 158.184 C 216.911 158.617 216.299 159.019 215.666 159.387 C 214.53 160.014 213.735 159.889 212.879 158.863 C 211.2 156.853 209.578 154.798 207.947 152.752 C 205.794 150.05 203.647 147.342 201.507 144.627 C 201.443 144.547 201.369 144.471 201.306 144.388 C 200.083 142.801 200.004 142.239 201.361 140.878 C 204.398 137.839 207.402 134.747 210.657 131.947 C 214.152 128.937 218.002 126.366 222.023 124.05 C 225.136 122.258 228.424 120.901 231.799 119.702 C 233.295 119.169 234.545 119.295 235.883 120.355 C 240.079 123.674 244.397 126.841 248.647 130.093 C 249.562 130.793 250.427 131.555 251.234 132.375 C 251.567 132.719 251.677 133.277 251.867 133.702 Z" style="fill: rgb(196, 235, 104);" transform="matrix(0.961262, 0.275637, -0.275637, 0.961262, 47.23335, -56.918982)"/>
</svg>